<?xml version="1.0" standalone="no"?>
<!DOCTYPE svg PUBLIC "-//W3C//DTD SVG 20010904//EN"
 "http://www.w3.org/TR/2001/REC-SVG-20010904/DTD/svg10.dtd">
<svg version="1.0" xmlns="http://www.w3.org/2000/svg"
 width="1280.000000pt" height="475.000000pt" viewBox="0 0 1280.000000 475.000000"
 preserveAspectRatio="xMidYMid meet">

<g transform="translate(0.000000,475.000000) scale(0.100000,-0.100000)"
fill="#000000" stroke="none">
<path d="M4736 3982 c-2 -4 -10 -36 -17 -70 -13 -62 -13 -63 13 -85 23 -20 32
-52 87 -307 80 -366 112 -558 109 -640 l-3 -65 -47 -22 c-25 -13 -111 -41
-190 -63 -158 -44 -169 -52 -193 -133 -20 -67 -11 -77 74 -77 36 0 127 -9 201
-19 74 -11 187 -25 250 -32 63 -6 119 -15 123 -19 5 -5 -8 -13 -30 -20 -21 -7
-114 -43 -208 -80 -271 -108 -393 -139 -467 -120 -71 19 -122 82 -120 147 2
58 -24 40 -66 -43 -42 -83 -76 -122 -121 -135 -44 -13 -91 4 -131 46 -21 22
-22 28 -11 71 20 79 0 71 -76 -32 -65 -88 -150 -143 -223 -143 -44 -1 -107 35
-134 76 -23 35 -24 42 -13 80 6 23 8 45 5 49 -4 3 -51 -15 -106 -40 -54 -25
-136 -56 -182 -67 -94 -24 -124 -20 -196 27 -54 35 -76 72 -68 114 12 57 -26
32 -75 -49 -51 -86 -81 -103 -182 -105 -58 -1 -70 2 -103 28 -21 15 -57 58
-80 95 -24 36 -51 73 -61 81 -26 22 -94 16 -151 -13 -60 -30 -190 -164 -233
-239 -67 -115 -89 -244 -51 -306 35 -57 87 -80 283 -121 107 -23 167 -44 167
-60 0 -25 -171 -135 -312 -200 -173 -80 -412 -141 -553 -141 -157 0 -301 93
-366 235 -25 56 -29 77 -29 153 0 98 17 173 74 320 20 51 36 97 36 102 0 21
-17 8 -40 -31 -50 -83 -77 -97 -106 -55 -26 40 -19 127 21 265 19 68 33 126
31 128 -8 8 -73 -129 -96 -202 -13 -42 -24 -108 -27 -165 -4 -84 -2 -99 16
-127 12 -19 29 -33 40 -33 11 0 22 -3 24 -7 3 -5 -4 -48 -15 -98 -15 -69 -19
-117 -16 -205 3 -109 5 -119 40 -191 84 -172 226 -269 394 -269 137 0 368 65
536 152 175 89 338 208 392 286 37 54 48 173 21 220 -23 39 -34 43 -207 88
-155 40 -200 58 -237 98 -23 25 -23 26 -6 53 38 59 171 180 217 197 64 25 87
18 124 -34 96 -134 151 -172 244 -172 93 0 154 41 214 142 17 29 26 38 26 26
0 -11 11 -38 24 -61 31 -52 123 -105 185 -105 46 0 196 56 264 100 l44 28 11
-62 c18 -96 66 -146 150 -154 84 -8 146 20 224 99 l67 68 11 -33 c22 -67 93
-100 164 -76 40 13 105 80 136 139 23 46 34 46 44 0 8 -40 57 -86 109 -100
107 -29 181 -10 522 132 389 161 416 171 507 189 49 10 140 22 203 26 64 4
119 12 124 18 14 18 41 115 35 130 -4 10 -37 16 -122 21 -197 11 -716 68 -730
80 -2 2 8 20 22 42 66 101 77 234 37 468 -33 189 -99 512 -116 569 -20 66 -20
66 21 54 25 -7 40 -6 47 1 8 8 -15 36 -83 101 -95 90 -105 97 -114 82z"/>
<path d="M10828 3894 c-21 -46 -32 -87 -36 -133 -5 -78 7 -111 42 -111 31 0
56 29 63 76 l6 39 -26 -30 c-27 -30 -27 -30 -43 -10 -19 25 -13 95 15 178 11
31 18 57 15 57 -3 0 -19 -30 -36 -66z"/>
<path d="M11335 3903 c-9 -32 -19 -66 -22 -77 -3 -10 2 -35 11 -55 9 -21 22
-106 30 -201 9 -91 31 -284 50 -430 47 -356 86 -705 86 -763 0 -89 -48 -137
-150 -150 -111 -14 -191 36 -250 157 -30 62 -42 106 -105 396 -53 241 -175
595 -228 665 -15 20 -16 20 -25 -6 -6 -14 -13 -50 -17 -80 -6 -52 -1 -73 89
-340 55 -163 98 -309 101 -344 7 -60 6 -60 -43 -130 -180 -255 -615 -496 -760
-421 -42 22 -57 60 -56 140 1 82 30 175 105 335 27 57 49 113 49 125 -2 64
-136 -176 -182 -324 -19 -62 -23 -97 -23 -200 0 -135 13 -177 67 -227 90 -83
305 -23 539 151 174 129 284 250 318 348 l18 53 13 -55 c19 -82 69 -220 97
-267 102 -175 306 -197 430 -45 48 59 70 121 84 239 7 67 5 123 -15 305 -14
123 -30 270 -36 328 -18 177 -70 594 -77 615 -4 15 6 10 35 -18 22 -22 42 -34
46 -29 3 5 -1 34 -10 63 -19 64 -132 299 -144 299 -5 0 -16 -26 -25 -57z"/>
<path d="M5411 3882 c-26 -25 -61 -112 -61 -149 0 -27 -17 -3 -30 42 -14 49
-70 108 -98 103 -9 -2 -23 -15 -32 -30 -20 -36 -5 -62 39 -66 36 -4 53 -25 80
-103 11 -29 24 -55 30 -57 9 -3 28 52 47 133 10 43 33 85 46 85 6 0 19 -7 29
-16 17 -15 19 -15 30 9 13 29 3 49 -33 68 -15 8 -24 4 -47 -19z"/>
<path d="M5961 3835 c-25 -80 -25 -88 -6 -125 10 -19 23 -109 36 -247 11 -120
45 -432 76 -693 44 -376 55 -505 55 -617 0 -79 3 -143 7 -143 19 0 53 108 64
197 14 122 3 259 -68 848 -30 252 -55 473 -55 492 l0 34 35 -27 c20 -15 38
-24 41 -21 9 9 -13 70 -78 212 -78 173 -81 175 -107 90z"/>
<path d="M8349 3873 c-6 -16 -16 -51 -22 -80 -9 -43 -8 -58 6 -90 11 -25 24
-115 37 -258 19 -196 36 -353 111 -995 11 -96 20 -235 20 -309 -1 -114 1 -132
14 -121 23 19 46 106 55 207 12 141 1 275 -90 1025 -22 180 -40 330 -40 334 0
3 16 -8 35 -25 44 -38 57 -39 49 -3 -14 54 -147 342 -159 342 -3 0 -10 -12
-16 -27z"/>
<path d="M11815 3889 c-16 -44 -35 -117 -35 -137 0 -13 7 -36 15 -52 10 -19
23 -109 35 -247 22 -231 90 -847 116 -1048 9 -66 16 -183 15 -260 l0 -140 20
24 c71 86 72 300 4 846 -64 520 -84 699 -80 704 2 2 18 -8 35 -23 67 -56 63
-28 -28 174 -68 153 -87 185 -97 159z"/>
<path d="M11175 3594 c-30 -32 -63 -119 -77 -199 -16 -94 -18 -95 -42 -13 -51
174 -145 239 -202 141 l-25 -41 32 -37 c29 -32 36 -36 66 -30 l34 6 34 -75
c19 -41 40 -98 46 -128 6 -29 15 -57 19 -62 14 -14 40 50 65 162 27 123 50
188 71 196 7 3 27 -7 44 -21 35 -29 45 -24 55 28 5 30 2 41 -20 67 -33 40 -67
41 -100 6z"/>
<path d="M5080 3548 c-47 -110 -50 -215 -7 -242 26 -16 49 3 69 58 18 47 13
62 -10 26 -17 -27 -40 -25 -54 5 -9 20 -7 42 10 112 12 48 20 88 18 90 -2 2
-13 -20 -26 -49z"/>
<path d="M5324 3542 c-16 -11 -30 -42 -38 -84 -8 -43 -2 -47 29 -18 13 12 29
18 38 14 24 -9 21 -17 -16 -34 -17 -8 -42 -31 -55 -50 -27 -39 -27 -44 8 -240
12 -63 23 -164 27 -223 3 -59 10 -110 14 -112 13 -9 22 105 15 204 -5 81 -28
206 -51 287 -6 18 1 24 42 41 26 11 65 26 85 33 76 24 90 88 32 140 -51 45
-102 61 -130 42z"/>
<path d="M3785 3296 c-17 -25 -16 -27 18 -67 88 -102 100 -191 49 -352 -48
-147 -41 -237 18 -237 35 0 55 26 66 85 l7 40 -25 -29 c-16 -19 -30 -27 -41
-23 -31 12 -30 53 3 159 56 184 50 305 -23 399 -40 53 -51 57 -72 25z"/>
<path d="M9779 3178 c-47 -92 -62 -205 -33 -246 30 -44 73 -20 93 52 13 49 9
55 -13 21 -20 -30 -41 -32 -56 -6 -15 28 -13 49 13 140 13 44 23 81 21 81 -2
0 -13 -19 -25 -42z"/>
<path d="M3376 3141 c-35 -79 -45 -180 -22 -216 32 -49 82 -14 100 70 l7 30
-24 -29 c-16 -19 -29 -27 -40 -23 -28 11 -31 55 -8 139 12 45 20 83 18 85 -2
2 -16 -23 -31 -56z"/>
<path d="M6983 3189 c-48 -18 -78 -91 -120 -289 -4 -21 -8 -14 -23 35 -35 122
-73 181 -130 205 -37 15 -52 5 -82 -53 l-20 -39 34 -35 c28 -29 38 -33 66 -28
33 6 33 6 68 -70 19 -41 40 -100 46 -130 6 -32 16 -55 24 -55 17 0 40 66 63
180 33 167 59 205 110 156 15 -14 30 -26 34 -26 3 0 11 18 18 39 10 35 9 42
-10 70 -28 39 -50 51 -78 40z"/>
<path d="M7280 3098 c-6 -24 -15 -56 -20 -71 -5 -15 -7 -34 -3 -43 6 -16 113
-74 137 -74 20 0 32 24 41 80 3 25 9 53 11 62 4 14 -11 25 -72 53 -42 19 -78
35 -80 35 -2 0 -8 -19 -14 -42z"/>
<path d="M7887 3015 c-9 -32 -31 -140 -29 -145 22 -71 91 -239 131 -317 28
-57 51 -113 51 -125 0 -34 -137 -162 -259 -243 -137 -91 -367 -206 -487 -245
-167 -53 -333 -50 -460 9 -171 80 -232 249 -192 528 12 80 7 113 -13 83 -30
-48 -50 -240 -38 -372 31 -334 218 -497 527 -459 288 35 679 250 882 486 69
78 99 148 107 246 7 80 -9 141 -77 284 l-49 105 35 0 c44 0 40 7 -54 110 -59
63 -70 71 -75 55z"/>
<path d="M11170 2959 c-37 -80 -51 -189 -31 -227 14 -27 52 -29 73 -4 15 16
41 92 34 99 -2 2 -11 -8 -20 -22 -18 -28 -51 -33 -60 -9 -11 28 -7 60 18 145
14 46 23 85 22 87 -2 1 -18 -30 -36 -69z"/>
<path d="M1910 2994 c-28 -24 -49 -68 -71 -154 l-12 -45 -19 58 c-24 69 -74
127 -111 127 -26 0 -67 -40 -67 -65 0 -21 34 -43 70 -47 29 -2 38 -10 59 -46
13 -24 29 -64 37 -88 l13 -44 -42 -33 c-55 -44 -136 -92 -272 -160 -109 -55
-159 -86 -140 -87 20 0 201 63 250 87 89 45 171 110 205 163 19 30 45 94 61
151 35 127 56 154 89 114 32 -39 66 14 37 59 -23 35 -53 38 -87 10z"/>
<path d="M2280 2929 c-12 -39 -19 -77 -16 -85 3 -7 42 -32 88 -55 l82 -41 17
21 c9 11 23 44 29 73 12 50 12 52 -11 71 -22 18 -152 87 -163 87 -3 0 -15 -32
-26 -71z"/>
<path d="M6471 2886 c-69 -107 -93 -173 -99 -278 -4 -86 -4 -87 26 -118 37
-37 95 -41 134 -10 29 22 66 95 74 143 l5 32 -33 -37 c-38 -43 -74 -59 -105
-47 -47 17 -46 98 3 239 20 58 40 113 46 123 5 10 7 21 4 24 -3 3 -27 -29 -55
-71z"/>
<path d="M9566 2942 c-11 -18 -19 -144 -9 -150 5 -4 29 -43 52 -88 23 -44 81
-129 130 -189 117 -142 121 -149 92 -179 -51 -54 -224 -116 -325 -116 -40 0
-42 2 -64 50 -26 56 -120 163 -163 186 -82 42 -168 -19 -219 -155 -28 -72 -26
-126 6 -172 35 -51 81 -67 221 -75 67 -4 121 -12 125 -18 27 -39 -7 -79 -163
-194 -289 -213 -601 -390 -1026 -584 -134 -61 -141 -94 -10 -49 92 32 235 68
352 90 85 16 131 31 203 67 111 56 323 194 442 288 174 138 217 193 249 318
l18 72 73 12 c142 24 275 118 328 231 51 111 30 228 -62 331 -60 68 -126 153
-126 162 0 6 16 10 35 10 19 0 35 4 35 8 0 12 -45 52 -110 99 -73 52 -78 55
-84 45z m-296 -685 c10 -12 16 -25 14 -28 -5 -8 -105 2 -127 13 -13 7 -15 13
-7 28 19 36 86 29 120 -13z"/>
<path d="M2882 2873 c-29 -68 -42 -122 -42 -171 0 -55 14 -82 44 -82 31 0 53
27 62 75 l7 40 -26 -30 c-26 -29 -27 -29 -42 -11 -20 26 -19 47 5 141 11 43
18 80 16 82 -2 2 -12 -18 -24 -44z"/>
<path d="M10405 2866 c-48 -108 -59 -210 -27 -239 43 -39 80 -10 96 73 l7 35
-26 -32 c-56 -70 -79 -1 -41 127 13 47 23 87 20 89 -2 2 -15 -22 -29 -53z"/>
<path d="M4272 2842 c-42 -98 -53 -192 -26 -230 30 -44 72 -18 94 57 10 35 1
41 -18 11 -17 -28 -41 -25 -52 6 -8 19 -5 48 10 112 11 47 19 87 17 89 -3 2
-14 -18 -25 -45z"/>
<path d="M1784 2445 c-15 -32 -31 -91 -37 -130 -9 -64 -8 -76 7 -100 32 -48
86 -14 101 65 l7 35 -22 -27 c-48 -61 -79 -14 -56 85 8 34 20 75 26 91 20 54
0 39 -26 -19z"/>
<path d="M5462 2223 c-44 -105 -54 -191 -26 -231 31 -45 80 -15 91 54 5 38 5
39 -11 17 -10 -13 -26 -23 -36 -23 -30 0 -34 50 -10 141 11 45 19 83 17 86 -2
2 -13 -18 -25 -44z"/>
<path d="M5154 2180 c-24 -9 -54 -47 -54 -67 0 -10 11 -12 40 -7 49 8 110 -3
110 -19 0 -7 -25 -37 -56 -67 -171 -168 -117 -310 97 -256 58 15 177 81 166
92 -2 2 -36 -2 -76 -11 -40 -8 -107 -15 -150 -15 -126 0 -132 27 -30 137 94
101 123 146 115 177 -10 39 -104 60 -162 36z"/>
<path d="M10757 2136 c-47 -95 -61 -202 -31 -244 30 -43 71 -21 94 51 15 47 9
57 -14 22 -39 -59 -74 -7 -55 83 6 31 17 74 25 95 21 59 11 55 -19 -7z"/>
<path d="M10872 2133 c-12 -5 -42 -54 -42 -70 0 -4 30 -6 66 -5 96 5 99 -5 26
-82 -120 -125 -136 -237 -36 -262 53 -13 159 2 212 31 58 31 112 82 77 71 -56
-16 -172 -36 -215 -36 -123 0 -132 39 -31 144 77 80 121 140 121 167 0 31 -39
49 -105 48 -33 0 -66 -3 -73 -6z"/>
<path d="M4942 2042 c-42 -92 -53 -191 -26 -230 31 -45 81 -7 99 73 l7 30 -24
-29 c-28 -34 -54 -31 -64 8 -3 13 4 62 15 107 12 45 19 84 18 86 -2 1 -13 -18
-25 -45z"/>
<path d="M8862 2050 c-22 -9 -52 -63 -52 -95 0 -12 4 -14 19 -5 30 16 59 12
71 -9 17 -33 7 -49 -118 -203 -38 -46 -10 -32 56 28 97 87 145 188 121 251
-16 43 -46 53 -97 33z"/>
<path d="M11412 1947 c-12 -13 -25 -37 -28 -54 l-6 -31 42 5 c47 7 64 -7 53
-42 -8 -28 -60 -102 -106 -152 -22 -24 -34 -43 -27 -43 22 0 142 124 167 174
28 55 35 125 14 150 -21 25 -83 21 -109 -7z"/>
<path d="M4210 1915 c-7 -8 -10 -24 -7 -35 4 -17 0 -20 -24 -20 -25 0 -29 4
-29 28 0 27 -1 26 -38 -17 l-38 -44 -59 7 c-93 11 -137 -9 -231 -106 -125
-129 -136 -138 -191 -174 -60 -39 -65 -47 -25 -38 49 12 79 33 168 115 115
106 166 131 254 123 58 -5 69 -3 100 18 30 20 40 22 68 14 42 -12 67 10 80 69
13 65 0 94 -28 60z"/>
<path d="M9786 1869 c-14 -33 -26 -67 -26 -75 0 -8 32 -35 71 -60 80 -52 88
-51 113 23 21 60 20 86 -1 105 -16 14 -116 68 -126 68 -3 0 -16 -27 -31 -61z"/>
<path d="M2753 1870 c-17 -7 -53 -56 -53 -72 0 -2 30 -2 68 0 104 5 108 -5 31
-85 -82 -85 -101 -120 -97 -180 4 -66 32 -85 134 -88 43 -1 83 2 88 7 6 5 36
24 67 42 l56 33 37 -19 c46 -23 58 -16 80 49 27 79 24 86 -56 128 -68 36 -72
37 -85 19 -7 -10 -21 -42 -30 -71 -15 -49 -15 -54 1 -72 16 -18 16 -19 -6 -25
-35 -9 -38 -8 -38 17 0 30 -7 38 -62 75 -62 42 -65 49 -36 80 73 80 86 135 38
159 -29 14 -104 16 -137 3z m24 -283 c-12 -31 -25 -57 -28 -57 -14 0 -18 32
-8 53 13 25 51 69 56 64 1 -2 -7 -29 -20 -60z"/>
<path d="M9594 1800 c-14 -38 -24 -76 -21 -84 8 -20 84 -75 115 -83 29 -7 37
3 58 75 19 62 18 64 -66 121 l-59 40 -27 -69z"/>
<path d="M7735 1639 c-44 -99 -47 -231 -6 -244 30 -9 48 4 65 46 24 58 21 75
-7 43 -55 -64 -74 9 -38 141 11 38 18 71 17 73 -2 1 -16 -25 -31 -59z"/>
<path d="M9377 1593 c-53 -106 -80 -248 -57 -304 14 -32 53 -48 79 -32 28 16
74 133 53 133 -5 0 -15 -11 -22 -25 -16 -29 -47 -42 -64 -25 -19 19 -10 129
17 215 15 43 24 81 22 83 -2 2 -15 -18 -28 -45z"/>
<path d="M2532 1363 c-29 -70 -42 -122 -42 -176 0 -61 14 -87 45 -87 29 0 52
31 61 81 6 34 6 34 -11 11 -10 -14 -25 -22 -38 -20 -31 4 -33 59 -7 154 12 42
20 78 17 80 -2 3 -13 -17 -25 -43z"/>
<path d="M2320 1028 c-11 -18 -25 -48 -31 -67 -10 -30 -9 -36 12 -56 13 -13
50 -37 81 -55 l57 -31 15 23 c20 32 41 111 33 131 -3 9 -38 32 -77 52 l-70 35
-20 -32z"/>
<path d="M2055 959 c-26 -68 -27 -71 -9 -90 23 -26 135 -89 157 -89 19 0 41
39 52 88 5 25 3 38 -12 54 -15 17 -147 108 -157 108 -1 0 -15 -32 -31 -71z"/>
<path d="M1482 960 c-33 -78 -47 -182 -30 -217 25 -54 72 -36 97 36 17 51 13
59 -12 27 -52 -64 -76 15 -41 133 21 73 13 85 -14 21z"/>
</g>
</svg>
